<mxfile host="65bd71144e">
    <diagram id="67NUu4XReKvS5BXkfgcI" name="Página-1">
        <mxGraphModel dx="3088" dy="3062" grid="1" gridSize="10" guides="1" tooltips="1" connect="1" arrows="1" fold="1" page="1" pageScale="1" pageWidth="1169" pageHeight="827" background="#999999" math="0" shadow="0" adaptiveColors="none">
            <root>
                <mxCell id="0"/>
                <mxCell id="1" parent="0"/>
                <mxCell id="18" value="&lt;div&gt;Guilherme Santos&lt;/div&gt;&lt;div&gt;&lt;span style=&quot;background-color: initial;&quot;&gt;(&lt;font&gt;&lt;i&gt;Kodak&lt;/i&gt;&lt;/font&gt;&lt;/span&gt;&lt;span style=&quot;background-color: initial;&quot;&gt;)&lt;/span&gt;&lt;/div&gt;" style="rounded=0;whiteSpace=wrap;html=1;fillColor=#d80073;fontColor=#ffffff;strokeColor=#A50040;fontFamily=Times New Roman;" parent="1" vertex="1">
                    <mxGeometry x="-1760" y="-2320" width="120" height="40" as="geometry"/>
                </mxCell>
                <mxCell id="19" value="&lt;div&gt;&lt;span style=&quot;background-color: initial;&quot;&gt;Ana Ferreira&lt;/span&gt;&lt;/div&gt;&lt;div&gt;&lt;span style=&quot;background-color: initial;&quot;&gt;(&lt;font&gt;&lt;i&gt;Arquipélagos&lt;/i&gt;&lt;/font&gt;&lt;/span&gt;&lt;span style=&quot;background-color: initial;&quot;&gt;)&lt;/span&gt;&lt;/div&gt;" style="rounded=0;whiteSpace=wrap;html=1;fillColor=#000066;fontColor=#FFFFFF;fontFamily=Times New Roman;" parent="1" vertex="1">
                    <mxGeometry x="-2000" y="-2240" width="120" height="40" as="geometry"/>
                </mxCell>
                <mxCell id="20" value="&lt;div&gt;&lt;span style=&quot;background-color: initial;&quot;&gt;Raquel Santos&lt;/span&gt;&lt;/div&gt;&lt;div&gt;&lt;span style=&quot;background-color: initial;&quot;&gt;(&lt;/span&gt;&lt;i style=&quot;background-color: initial;&quot;&gt;&lt;font&gt;????&lt;/font&gt;&lt;/i&gt;&lt;span style=&quot;background-color: initial;&quot;&gt;)&lt;/span&gt;&lt;/div&gt;" style="rounded=0;whiteSpace=wrap;html=1;fillColor=#0050ef;fontColor=#ffffff;strokeColor=#001DBC;fontFamily=Times New Roman;" parent="1" vertex="1">
                    <mxGeometry x="-2000" y="-2159" width="120" height="40" as="geometry"/>
                </mxCell>
                <mxCell id="21" value="&lt;div&gt;&lt;span style=&quot;background-color: initial;&quot;&gt;Carolina Coelho&lt;/span&gt;&lt;/div&gt;&lt;div&gt;&lt;span style=&quot;background-color: initial;&quot;&gt;(&lt;font&gt;&lt;i&gt;Tijolinho&lt;/i&gt;&lt;/font&gt;&lt;/span&gt;&lt;span style=&quot;background-color: initial;&quot;&gt;)&lt;/span&gt;&lt;/div&gt;" style="rounded=0;whiteSpace=wrap;html=1;fillColor=#008a00;fontColor=#ffffff;strokeColor=#005700;fontFamily=Times New Roman;" parent="1" vertex="1">
                    <mxGeometry x="-1880" y="-2159" width="120" height="40" as="geometry"/>
                </mxCell>
                <mxCell id="22" value="&lt;div&gt;&lt;span style=&quot;background-color: initial;&quot;&gt;Gonçalo de Jesus&lt;/span&gt;&lt;/div&gt;&lt;div&gt;&lt;span style=&quot;background-color: initial;&quot;&gt;(&lt;font&gt;&lt;i&gt;Paciente Zero&lt;/i&gt;&lt;/font&gt;&lt;/span&gt;&lt;span style=&quot;background-color: initial;&quot;&gt;)&lt;/span&gt;&lt;/div&gt;" style="rounded=0;whiteSpace=wrap;html=1;fillColor=#000066;fontColor=#FFFFFF;fontFamily=Times New Roman;" parent="1" vertex="1">
                    <mxGeometry x="-1880" y="-2240" width="120" height="40" as="geometry"/>
                </mxCell>
                <mxCell id="23" value="&lt;div&gt;&lt;span style=&quot;background-color: initial;&quot;&gt;Nuno Gomes&lt;/span&gt;&lt;/div&gt;&lt;div&gt;&lt;span style=&quot;background-color: initial;&quot;&gt;(&lt;/span&gt;&lt;i style=&quot;background-color: initial;&quot;&gt;&lt;font&gt;????&lt;/font&gt;&lt;/i&gt;&lt;span style=&quot;background-color: initial;&quot;&gt;)&lt;/span&gt;&lt;/div&gt;" style="rounded=0;whiteSpace=wrap;html=1;fillColor=#f0a30a;fontColor=#000000;strokeColor=#BD7000;fontFamily=Times New Roman;" parent="1" vertex="1">
                    <mxGeometry x="-1760" y="-2240" width="120" height="40" as="geometry"/>
                </mxCell>
                <mxCell id="24" value="&lt;div&gt;&lt;span style=&quot;background-color: initial;&quot;&gt;Rui Correa&lt;/span&gt;&lt;/div&gt;&lt;div&gt;&lt;span style=&quot;background-color: initial;&quot;&gt;(&lt;/span&gt;&lt;i style=&quot;background-color: initial;&quot;&gt;&lt;font&gt;????&lt;/font&gt;&lt;/i&gt;&lt;span style=&quot;background-color: initial;&quot;&gt;)&lt;/span&gt;&lt;/div&gt;" style="rounded=0;whiteSpace=wrap;html=1;fillColor=#CCCCCC;fontColor=#000000;fontFamily=Times New Roman;" parent="1" vertex="1">
                    <mxGeometry x="-1640" y="-2320" width="120" height="40" as="geometry"/>
                </mxCell>
                <mxCell id="25" value="" style="endArrow=none;html=1;fontColor=#FFFFFF;exitX=0.5;exitY=0;exitDx=0;exitDy=0;entryX=0.5;entryY=1;entryDx=0;entryDy=0;fontFamily=Times New Roman;" parent="1" source="20" target="19" edge="1">
                    <mxGeometry width="50" height="50" relative="1" as="geometry">
                        <mxPoint x="-1790" y="-2040" as="sourcePoint"/>
                        <mxPoint x="-1740" y="-2090" as="targetPoint"/>
                        <Array as="points">
                            <mxPoint x="-1940" y="-2180"/>
                        </Array>
                    </mxGeometry>
                </mxCell>
                <mxCell id="26" value="" style="endArrow=none;html=1;fontColor=#FFFFFF;exitX=0.5;exitY=0;exitDx=0;exitDy=0;entryX=0.5;entryY=1;entryDx=0;entryDy=0;fontFamily=Times New Roman;" parent="1" source="21" target="19" edge="1">
                    <mxGeometry width="50" height="50" relative="1" as="geometry">
                        <mxPoint x="-1870" y="-2149" as="sourcePoint"/>
                        <mxPoint x="-1810" y="-2190" as="targetPoint"/>
                    </mxGeometry>
                </mxCell>
                <mxCell id="27" value="" style="endArrow=none;html=1;fontColor=#FFFFFF;exitX=0.5;exitY=0;exitDx=0;exitDy=0;entryX=0.5;entryY=1;entryDx=0;entryDy=0;fontFamily=Times New Roman;" parent="1" source="19" target="18" edge="1">
                    <mxGeometry width="50" height="50" relative="1" as="geometry">
                        <mxPoint x="-1750" y="-2149" as="sourcePoint"/>
                        <mxPoint x="-1810" y="-2190" as="targetPoint"/>
                    </mxGeometry>
                </mxCell>
                <mxCell id="28" value="" style="endArrow=none;html=1;fontColor=#FFFFFF;exitX=0.5;exitY=0;exitDx=0;exitDy=0;entryX=0.5;entryY=1;entryDx=0;entryDy=0;fontFamily=Times New Roman;" parent="1" source="23" target="18" edge="1">
                    <mxGeometry width="50" height="50" relative="1" as="geometry">
                        <mxPoint x="-1810" y="-2230" as="sourcePoint"/>
                        <mxPoint x="-1750" y="-2270" as="targetPoint"/>
                    </mxGeometry>
                </mxCell>
                <mxCell id="29" value="" style="endArrow=none;html=1;fontColor=#FFFFFF;exitX=0.5;exitY=0;exitDx=0;exitDy=0;entryX=0.5;entryY=1;entryDx=0;entryDy=0;fontFamily=Times New Roman;" parent="1" source="24" target="39" edge="1">
                    <mxGeometry width="50" height="50" relative="1" as="geometry">
                        <mxPoint x="-1690" y="-2230" as="sourcePoint"/>
                        <mxPoint x="-1750" y="-2270" as="targetPoint"/>
                    </mxGeometry>
                </mxCell>
                <mxCell id="30" value="" style="endArrow=none;html=1;fontColor=#FFFFFF;exitX=0.5;exitY=1;exitDx=0;exitDy=0;entryX=0.5;entryY=0;entryDx=0;entryDy=0;fontFamily=Times New Roman;" parent="1" source="18" target="22" edge="1">
                    <mxGeometry width="50" height="50" relative="1" as="geometry">
                        <mxPoint x="-1570" y="-2230" as="sourcePoint"/>
                        <mxPoint x="-1750" y="-2270" as="targetPoint"/>
                    </mxGeometry>
                </mxCell>
                <mxCell id="31" value="&lt;div&gt;Gonçalo Correia&lt;/div&gt;&lt;div&gt;&lt;span style=&quot;background-color: initial;&quot;&gt;(&lt;/span&gt;&lt;i style=&quot;background-color: initial;&quot;&gt;&lt;font&gt;????&lt;/font&gt;&lt;/i&gt;&lt;span style=&quot;background-color: initial;&quot;&gt;)&lt;/span&gt;&lt;/div&gt;" style="rounded=0;whiteSpace=wrap;html=1;fillColor=#f5f5f5;fontColor=#333333;strokeColor=#666666;fontFamily=Times New Roman;" parent="1" vertex="1">
                    <mxGeometry x="-1760" y="-2159" width="120" height="40" as="geometry"/>
                </mxCell>
                <mxCell id="32" value="" style="endArrow=none;html=1;fontColor=#FFFFFF;exitX=0.5;exitY=0;exitDx=0;exitDy=0;entryX=0.5;entryY=1;entryDx=0;entryDy=0;fontFamily=Times New Roman;" parent="1" source="31" target="23" edge="1">
                    <mxGeometry width="50" height="50" relative="1" as="geometry">
                        <mxPoint x="-1690" y="-2230" as="sourcePoint"/>
                        <mxPoint x="-1750" y="-2270" as="targetPoint"/>
                    </mxGeometry>
                </mxCell>
                <mxCell id="33" value="&lt;div&gt;&lt;span style=&quot;background-color: initial;&quot;&gt;João Quinteiro&lt;/span&gt;&lt;/div&gt;&lt;div&gt;&lt;span style=&quot;background-color: initial;&quot;&gt;(&lt;/span&gt;&lt;i style=&quot;background-color: initial;&quot;&gt;&lt;font&gt;????&lt;/font&gt;&lt;/i&gt;&lt;span style=&quot;background-color: initial;&quot;&gt;)&lt;/span&gt;&lt;/div&gt;" style="rounded=0;whiteSpace=wrap;html=1;fillColor=#f5f5f5;fontColor=#333333;strokeColor=#666666;fontFamily=Times New Roman;" parent="1" vertex="1">
                    <mxGeometry x="-1520" y="-2240" width="120" height="40" as="geometry"/>
                </mxCell>
                <mxCell id="34" value="" style="endArrow=none;html=1;fontColor=#FFFFFF;exitX=0.5;exitY=0;exitDx=0;exitDy=0;entryX=0.5;entryY=1;entryDx=0;entryDy=0;fontFamily=Times New Roman;" parent="1" source="33" target="18" edge="1">
                    <mxGeometry width="50" height="50" relative="1" as="geometry">
                        <mxPoint x="-1570" y="-2230" as="sourcePoint"/>
                        <mxPoint x="-1630" y="-2300" as="targetPoint"/>
                    </mxGeometry>
                </mxCell>
                <mxCell id="37" value="" style="endArrow=none;html=1;fontColor=#FFFFFF;exitX=0.5;exitY=1;exitDx=0;exitDy=0;entryX=0.5;entryY=0;entryDx=0;entryDy=0;fontFamily=Times New Roman;" parent="1" source="39" target="18" edge="1">
                    <mxGeometry width="50" height="50" relative="1" as="geometry">
                        <mxPoint x="-1640" y="-2360" as="sourcePoint"/>
                        <mxPoint x="-1690" y="-2270" as="targetPoint"/>
                    </mxGeometry>
                </mxCell>
                <mxCell id="39" value="&lt;div&gt;&lt;span style=&quot;background-color: initial;&quot;&gt;Bruno Carvalho&lt;/span&gt;&lt;/div&gt;&lt;div&gt;&lt;span style=&quot;background-color: initial;&quot;&gt;(&lt;/span&gt;&lt;i style=&quot;background-color: initial;&quot;&gt;&lt;font&gt;????&lt;/font&gt;&lt;/i&gt;&lt;span style=&quot;background-color: initial;&quot;&gt;)&lt;/span&gt;&lt;/div&gt;" style="rounded=0;whiteSpace=wrap;html=1;fillColor=#a0522d;fontColor=#ffffff;strokeColor=#6D1F00;fontFamily=Times New Roman;" parent="1" vertex="1">
                    <mxGeometry x="-1760" y="-2400" width="120" height="40" as="geometry"/>
                </mxCell>
                <mxCell id="41" value="&lt;div&gt;Diogo Batista&lt;/div&gt;&lt;div&gt;&lt;span style=&quot;background-color: initial;&quot;&gt;(&lt;/span&gt;&lt;i style=&quot;background-color: initial;&quot;&gt;&lt;font&gt;????&lt;/font&gt;&lt;/i&gt;&lt;span style=&quot;background-color: initial;&quot;&gt;)&lt;/span&gt;&lt;/div&gt;" style="rounded=0;whiteSpace=wrap;html=1;fillColor=#d80073;fontColor=#ffffff;strokeColor=#A50040;fontFamily=Times New Roman;" parent="1" vertex="1">
                    <mxGeometry x="-1880" y="-2320" width="120" height="40" as="geometry"/>
                </mxCell>
                <mxCell id="42" value="" style="endArrow=none;html=1;fontColor=#FFFFFF;exitX=0.5;exitY=1;exitDx=0;exitDy=0;entryX=0.5;entryY=0;entryDx=0;entryDy=0;fontFamily=Times New Roman;" parent="1" source="39" target="41" edge="1">
                    <mxGeometry width="50" height="50" relative="1" as="geometry">
                        <mxPoint x="-1690" y="-2350" as="sourcePoint"/>
                        <mxPoint x="-1690" y="-2310" as="targetPoint"/>
                    </mxGeometry>
                </mxCell>
                <mxCell id="44" value="&lt;div&gt;Pedro Pacheco&lt;/div&gt;&lt;div&gt;&lt;span style=&quot;background-color: initial;&quot;&gt;(&lt;/span&gt;&lt;i style=&quot;background-color: initial;&quot;&gt;&lt;font&gt;????&lt;/font&gt;&lt;/i&gt;&lt;span style=&quot;background-color: initial;&quot;&gt;)&lt;/span&gt;&lt;/div&gt;" style="rounded=0;whiteSpace=wrap;html=1;fillColor=#0050ef;fontColor=#ffffff;strokeColor=#001DBC;fontFamily=Times New Roman;" parent="1" vertex="1">
                    <mxGeometry x="-1640" y="-2240" width="120" height="40" as="geometry"/>
                </mxCell>
                <mxCell id="45" value="" style="endArrow=none;html=1;fontColor=#FFFFFF;exitX=0.5;exitY=0;exitDx=0;exitDy=0;entryX=0.5;entryY=1;entryDx=0;entryDy=0;fontFamily=Times New Roman;" parent="1" source="44" target="18" edge="1">
                    <mxGeometry width="50" height="50" relative="1" as="geometry">
                        <mxPoint x="-1450" y="-2230" as="sourcePoint"/>
                        <mxPoint x="-1690" y="-2270" as="targetPoint"/>
                    </mxGeometry>
                </mxCell>
                <mxCell id="46" value="&lt;div&gt;&lt;span style=&quot;background-color: initial;&quot;&gt;Sofia Neves&lt;/span&gt;&lt;/div&gt;&lt;div&gt;&lt;span style=&quot;background-color: initial;&quot;&gt;(&lt;font&gt;&lt;i&gt;Savage&lt;/i&gt;&lt;/font&gt;&lt;/span&gt;&lt;span style=&quot;background-color: initial;&quot;&gt;)&lt;/span&gt;&lt;/div&gt;" style="rounded=0;whiteSpace=wrap;html=1;fillColor=#008a00;fontColor=#ffffff;strokeColor=#005700;fontFamily=Times New Roman;" parent="1" vertex="1">
                    <mxGeometry x="-2120" y="-2159" width="120" height="40" as="geometry"/>
                </mxCell>
                <mxCell id="48" value="" style="endArrow=none;html=1;fontColor=#FFFFFF;exitX=0.5;exitY=1;exitDx=0;exitDy=0;entryX=0.5;entryY=0;entryDx=0;entryDy=0;fontFamily=Times New Roman;" parent="1" source="19" target="46" edge="1">
                    <mxGeometry width="50" height="50" relative="1" as="geometry">
                        <mxPoint x="-1810" y="-2149" as="sourcePoint"/>
                        <mxPoint x="-1930" y="-2190" as="targetPoint"/>
                    </mxGeometry>
                </mxCell>
                <mxCell id="49" value="2023 / 2024" style="rounded=0;whiteSpace=wrap;html=1;fillColor=#008a00;fontColor=#ffffff;strokeColor=#005700;fontFamily=Times New Roman;" parent="1" vertex="1">
                    <mxGeometry x="-2320" y="-2400" width="160" height="20" as="geometry"/>
                </mxCell>
                <mxCell id="50" value="2022 / 2023" style="rounded=0;whiteSpace=wrap;html=1;fillColor=#e3c800;fontColor=#000000;strokeColor=#B09500;fontFamily=Times New Roman;" parent="1" vertex="1">
                    <mxGeometry x="-2320" y="-2380" width="160" height="20" as="geometry"/>
                </mxCell>
                <mxCell id="51" value="2021 / 2022" style="rounded=0;whiteSpace=wrap;html=1;fillColor=#f5f5f5;fontColor=#333333;strokeColor=#666666;fontFamily=Times New Roman;" parent="1" vertex="1">
                    <mxGeometry x="-2320" y="-2360" width="160" height="20" as="geometry"/>
                </mxCell>
                <mxCell id="52" value="2019 / 2020" style="rounded=0;whiteSpace=wrap;html=1;fillColor=#0050ef;fontColor=#ffffff;strokeColor=#001DBC;fontFamily=Times New Roman;" parent="1" vertex="1">
                    <mxGeometry x="-2320" y="-2340" width="160" height="20" as="geometry"/>
                </mxCell>
                <mxCell id="53" value="2018 / 2019" style="rounded=0;whiteSpace=wrap;html=1;fillColor=#fa6800;fontColor=#000000;strokeColor=#C73500;fontFamily=Times New Roman;" parent="1" vertex="1">
                    <mxGeometry x="-2320" y="-2320" width="160" height="20" as="geometry"/>
                </mxCell>
                <mxCell id="54" value="&amp;nbsp;Legenda Matrículas:" style="rounded=0;whiteSpace=wrap;html=1;fillColor=#f5f5f5;gradientColor=#b3b3b3;strokeColor=#666666;fontFamily=Times New Roman;" parent="1" vertex="1">
                    <mxGeometry x="-2320" y="-2440" width="160" height="20" as="geometry"/>
                </mxCell>
                <mxCell id="55" value="2017 / 2018" style="rounded=0;whiteSpace=wrap;html=1;fillColor=#000066;fontColor=#ffffff;strokeColor=#432D57;fontFamily=Times New Roman;" parent="1" vertex="1">
                    <mxGeometry x="-2320" y="-2300" width="160" height="20" as="geometry"/>
                </mxCell>
                <mxCell id="56" value="2016 / 2017" style="rounded=0;whiteSpace=wrap;html=1;fillColor=#f0a30a;fontColor=#000000;strokeColor=#BD7000;fontFamily=Times New Roman;" parent="1" vertex="1">
                    <mxGeometry x="-2320" y="-2280" width="160" height="21" as="geometry"/>
                </mxCell>
                <mxCell id="57" value="2015 / 2016" style="rounded=0;whiteSpace=wrap;html=1;fillColor=#CCCCCC;strokeColor=#666666;fontColor=#333333;fontFamily=Times New Roman;" parent="1" vertex="1">
                    <mxGeometry x="-2320" y="-2259" width="160" height="20" as="geometry"/>
                </mxCell>
                <mxCell id="58" value="2014 / 2015" style="rounded=0;whiteSpace=wrap;html=1;fillColor=#d80073;fontColor=#ffffff;strokeColor=#A50040;fontFamily=Times New Roman;" parent="1" vertex="1">
                    <mxGeometry x="-2320" y="-2239" width="160" height="20" as="geometry"/>
                </mxCell>
                <mxCell id="59" value="2013 / 2014" style="rounded=0;whiteSpace=wrap;html=1;fillColor=#a20025;fontColor=#ffffff;strokeColor=#6F0000;fontFamily=Times New Roman;" parent="1" vertex="1">
                    <mxGeometry x="-2320" y="-2219" width="160" height="20" as="geometry"/>
                </mxCell>
                <mxCell id="60" value="2012&lt;span style=&quot;background-color: initial;&quot;&gt;&amp;nbsp;/ 2013&lt;/span&gt;" style="rounded=0;whiteSpace=wrap;html=1;fillColor=#60a917;fontColor=#ffffff;strokeColor=#2D7600;fontFamily=Times New Roman;" parent="1" vertex="1">
                    <mxGeometry x="-2320" y="-2199" width="160" height="20" as="geometry"/>
                </mxCell>
                <mxCell id="61" value="2011&lt;span style=&quot;background-color: initial;&quot;&gt;&amp;nbsp;/ 2012&lt;/span&gt;" style="rounded=0;whiteSpace=wrap;html=1;fillColor=#1ba1e2;fontColor=#ffffff;strokeColor=#006EAF;fontFamily=Times New Roman;" parent="1" vertex="1">
                    <mxGeometry x="-2320" y="-2179" width="160" height="20" as="geometry"/>
                </mxCell>
                <mxCell id="62" value="2010&lt;span style=&quot;background-color: initial;&quot;&gt;&amp;nbsp;/ 2011&lt;/span&gt;" style="rounded=0;whiteSpace=wrap;html=1;fillColor=#FFFF00;fontColor=#000000;fontFamily=Times New Roman;" parent="1" vertex="1">
                    <mxGeometry x="-2320" y="-2159" width="160" height="20" as="geometry"/>
                </mxCell>
                <mxCell id="63" value="2010+" style="rounded=0;whiteSpace=wrap;html=1;fillColor=#a0522d;strokeColor=#6D1F00;fontColor=#ffffff;fontFamily=Times New Roman;" parent="1" vertex="1">
                    <mxGeometry x="-2320" y="-2139" width="160" height="20" as="geometry"/>
                </mxCell>
                <mxCell id="64" value="Não sabemos ano" style="rounded=0;whiteSpace=wrap;html=1;fillColor=#f5f5f5;gradientColor=#b3b3b3;strokeColor=#666666;fontFamily=Times New Roman;" parent="1" vertex="1">
                    <mxGeometry x="-2320" y="-2119" width="160" height="20" as="geometry"/>
                </mxCell>
                <mxCell id="65" value="2024&amp;nbsp;/ 2025" style="rounded=0;whiteSpace=wrap;html=1;fillColor=#FF0080;strokeColor=#996185;gradientColor=none;fontColor=#000000;fontFamily=Times New Roman;" parent="1" vertex="1">
                    <mxGeometry x="-2320" y="-2420" width="160" height="20" as="geometry"/>
                </mxCell>
            </root>
        </mxGraphModel>
    </diagram>
</mxfile>